<svg width="41" height="56" viewBox="0 0 41 56" fill="none" xmlns="http://www.w3.org/2000/svg">
<path d="M10.6104 34.1155C12.0501 34.3502 16.2908 35.3517 14.9528 40.0462C13.8731 43.8566 15.2423 45.9065 19.1857 46.2273C23.1291 46.5481 27.1976 43.215 27.0646 39.256C26.9786 36.7992 25.4294 34.585 23.5046 33.0593C21.5799 31.5335 19.2718 30.5868 17.0262 29.5697C14.0374 28.2161 12.2457 26.6904 9.8906 24.4136C7.53552 22.1367 6.99565 17.5048 7.15214 15.1263C7.33992 12.2861 9.31161 8.82 12.3709 6.37886C15.344 4.00813 16.4942 3.31178 21.3061 3.31178C26.3605 3.31178 30.3273 5.57297 31.9939 10.0797C33.0814 13.0216 32.9249 16.7068 30.6325 18.8584C28.34 21.01 23.7394 20.2902 23.0195 17.2388C22.7926 16.2921 22.9491 15.2828 22.6988 14.3439C21.9242 11.4724 17.4722 11.0499 15.4849 13.2641C13.4975 15.4784 13.7166 18.9836 15.0624 21.636C15.5944 22.6844 16.2986 23.6703 17.2453 24.3666C18.1451 25.0317 19.217 25.4072 20.2654 25.7906C25.2025 27.5667 30.562 29.9922 32.565 34.8432C34.1768 38.7318 33.0658 43.4419 30.3195 46.6342C27.5654 49.8264 23.4029 51.5791 19.2092 51.9781C15.6335 52.3145 11.8779 51.6964 8.87345 49.7247C5.86897 47.753 5.09438 43.3011 5.3604 40.7348C5.60295 38.3875 7.96585 33.6461 10.7982 34.1859" fill="#70391A"/>
<path d="M10.6104 34.1155C12.0501 34.3502 16.2908 35.3517 14.9528 40.0462C13.8731 43.8566 15.2423 45.9065 19.1857 46.2273C23.1291 46.5481 27.1976 43.215 27.0646 39.256C26.9786 36.7992 25.4294 34.585 23.5046 33.0593C21.5799 31.5335 19.2718 30.5868 17.0262 29.5697C14.0374 28.2161 12.2457 26.6904 9.8906 24.4136C7.53552 22.1367 6.99565 17.5048 7.15214 15.1263C7.33992 12.2861 9.31161 8.82 12.3709 6.37886C15.344 4.00813 16.4942 3.31178 21.3061 3.31178C26.3605 3.31178 30.3273 5.57297 31.9939 10.0797C33.0814 13.0216 32.9249 16.7068 30.6325 18.8584C28.34 21.01 23.7394 20.2902 23.0195 17.2388C22.7926 16.2921 22.9491 15.2828 22.6988 14.3439C21.9242 11.4724 17.4722 11.0499 15.4849 13.2641C13.4975 15.4784 13.7166 18.9836 15.0624 21.636C15.5944 22.6844 16.2986 23.6703 17.2453 24.3666C18.1451 25.0317 19.217 25.4072 20.2654 25.7906C25.2025 27.5667 30.562 29.9922 32.565 34.8432C34.1768 38.7318 33.0658 43.4419 30.3195 46.6342C27.5654 49.8264 23.4029 51.5791 19.2092 51.9781C15.6335 52.3145 11.8779 51.6964 8.87345 49.7247C5.86897 47.753 5.09438 43.3011 5.3604 40.7348C5.60295 38.3875 7.96585 33.6461 10.7982 34.1859" stroke="#F5D565" stroke-width="2" stroke-miterlimit="10" stroke-linecap="round"/>
<mask id="path-3-outside-1_8_81" maskUnits="userSpaceOnUse" x="-1.37571" y="-2.22743" width="14.0188" height="17.623" fill="black">
<rect fill="white" x="-1.37571" y="-2.22743" width="14.0188" height="17.623"/>
<path d="M2.95316 12.1635C2.59917 12.8261 1.72242 13.2123 1.53594 12.4846V12.4846C1.41171 11.9997 1.45517 11.3066 1.66248 10.4666C1.86979 9.62666 2.23455 8.66573 2.72445 7.66898C3.21435 6.67222 3.81427 5.67041 4.47107 4.75227C5.12786 3.83413 5.82127 3.02802 6.48985 2.40533C7.15843 1.78264 7.78157 1.36259 8.30405 1.1824C8.82653 1.0022 9.23223 1.06742 9.48522 1.37228V1.37228C10.1552 2.17966 9.35608 3.33852 8.62347 4.08955L6.51657 6.24943C5.9242 6.8567 5.42066 7.54468 5.02092 8.29294L2.95316 12.1635Z"/>
</mask>
<path d="M2.95316 12.1635C2.59917 12.8261 1.72242 13.2123 1.53594 12.4846V12.4846C1.41171 11.9997 1.45517 11.3066 1.66248 10.4666C1.86979 9.62666 2.23455 8.66573 2.72445 7.66898C3.21435 6.67222 3.81427 5.67041 4.47107 4.75227C5.12786 3.83413 5.82127 3.02802 6.48985 2.40533C7.15843 1.78264 7.78157 1.36259 8.30405 1.1824C8.82653 1.0022 9.23223 1.06742 9.48522 1.37228V1.37228C10.1552 2.17966 9.35608 3.33852 8.62347 4.08955L6.51657 6.24943C5.9242 6.8567 5.42066 7.54468 5.02092 8.29294L2.95316 12.1635Z" fill="#70391A"/>
<path d="M2.95316 12.1635C2.59917 12.8261 1.72242 13.2123 1.53594 12.4846V12.4846C1.41171 11.9997 1.45517 11.3066 1.66248 10.4666C1.86979 9.62666 2.23455 8.66573 2.72445 7.66898C3.21435 6.67222 3.81427 5.67041 4.47107 4.75227C5.12786 3.83413 5.82127 3.02802 6.48985 2.40533C7.15843 1.78264 7.78157 1.36259 8.30405 1.1824C8.82653 1.0022 9.23223 1.06742 9.48522 1.37228V1.37228C10.1552 2.17966 9.35608 3.33852 8.62347 4.08955L6.51657 6.24943C5.9242 6.8567 5.42066 7.54468 5.02092 8.29294L2.95316 12.1635Z" stroke="#F5D565" stroke-width="2" mask="url(#path-3-outside-1_8_81)"/>
<mask id="path-4-outside-2_8_81" maskUnits="userSpaceOnUse" x="27.7878" y="40.5063" width="13.9195" height="16.6205" fill="black">
<rect fill="white" x="27.7878" y="40.5063" width="13.9195" height="16.6205"/>
<path d="M37.1611 43.6272C37.5371 42.98 38.4223 42.6139 38.6508 43.3266V43.3266C38.7961 43.78 38.7849 44.4126 38.618 45.1749C38.4512 45.9372 38.1332 46.8087 37.6889 47.7211C37.2447 48.6336 36.6861 49.5623 36.057 50.4348C35.4279 51.3074 34.7452 52.1 34.0623 52.7507C33.3794 53.4015 32.7148 53.8929 32.1204 54.1864C31.5259 54.4799 31.0178 54.5676 30.6357 54.4427V54.4427C29.8683 54.1918 30.2304 53.1147 30.7672 52.5117L33.7044 49.2117C34.1107 48.7552 34.4701 48.259 34.7771 47.7305L37.1611 43.6272Z"/>
</mask>
<path d="M37.1611 43.6272C37.5371 42.98 38.4223 42.6139 38.6508 43.3266V43.3266C38.7961 43.78 38.7849 44.4126 38.618 45.1749C38.4512 45.9372 38.1332 46.8087 37.6889 47.7211C37.2447 48.6336 36.6861 49.5623 36.057 50.4348C35.4279 51.3074 34.7452 52.1 34.0623 52.7507C33.3794 53.4015 32.7148 53.8929 32.1204 54.1864C31.5259 54.4799 31.0178 54.5676 30.6357 54.4427V54.4427C29.8683 54.1918 30.2304 53.1147 30.7672 52.5117L33.7044 49.2117C34.1107 48.7552 34.4701 48.259 34.7771 47.7305L37.1611 43.6272Z" fill="#70391A"/>
<path d="M37.1611 43.6272C37.5371 42.98 38.4223 42.6139 38.6508 43.3266V43.3266C38.7961 43.78 38.7849 44.4126 38.618 45.1749C38.4512 45.9372 38.1332 46.8087 37.6889 47.7211C37.2447 48.6336 36.6861 49.5623 36.057 50.4348C35.4279 51.3074 34.7452 52.1 34.0623 52.7507C33.3794 53.4015 32.7148 53.8929 32.1204 54.1864C31.5259 54.4799 31.0178 54.5676 30.6357 54.4427V54.4427C29.8683 54.1918 30.2304 53.1147 30.7672 52.5117L33.7044 49.2117C34.1107 48.7552 34.4701 48.259 34.7771 47.7305L37.1611 43.6272Z" stroke="#F5D565" stroke-width="2" mask="url(#path-4-outside-2_8_81)"/>
</svg>
