<svg width="64" height="64" viewBox="0 0 64 64" fill="none" xmlns="http://www.w3.org/2000/svg">
<rect width="64" height="64" rx="10" fill="#121826"/>
<path d="M23.2988 38.8037C24.7384 39.0385 28.9791 40.04 27.6412 44.7345C26.5615 48.5448 27.9307 50.5948 31.8741 50.9155C35.8174 51.2363 39.886 47.9032 39.753 43.9442C39.6669 41.4874 38.1177 39.2732 36.193 37.7475C34.2683 36.2218 31.9601 35.275 29.7146 34.2579C26.7258 32.9043 24.934 31.3786 22.579 29.1018C20.2239 26.8249 19.684 22.193 19.8405 19.8145C20.0283 16.9743 22 13.5082 25.0592 11.0671C28.0324 8.69635 29.1825 8 33.9944 8C39.0488 8 43.0157 10.2612 44.6822 14.7679C45.7698 17.7098 45.6133 21.395 43.3208 23.5466C41.0283 25.6983 36.4277 24.9784 35.7079 21.927C35.481 20.9803 35.6375 19.971 35.3871 19.0321C34.6125 16.1606 30.1606 15.7381 28.1732 17.9523C26.1859 20.1666 26.405 23.6718 27.7507 26.3242C28.2828 27.3726 28.9869 28.3585 29.9337 29.0548C30.8334 29.7199 31.9054 30.0954 32.9538 30.4788C37.8908 32.2549 43.2504 34.6804 45.2534 39.5314C46.8652 43.42 45.7541 48.1301 43.0078 51.3224C40.2537 54.5147 36.0913 56.2673 31.8975 56.6663C28.3219 57.0027 24.5663 56.3846 21.5618 54.4129C18.5573 52.4413 17.7827 47.9893 18.0488 45.423C18.2913 43.0757 20.6542 38.3343 23.4866 38.8742" fill="#70391A"/>
<path d="M23.2988 38.8037C24.7384 39.0385 28.9791 40.04 27.6412 44.7345C26.5615 48.5448 27.9307 50.5948 31.8741 50.9155C35.8174 51.2363 39.886 47.9032 39.753 43.9442C39.6669 41.4874 38.1177 39.2732 36.193 37.7475C34.2683 36.2218 31.9601 35.275 29.7146 34.2579C26.7258 32.9043 24.934 31.3786 22.579 29.1018C20.2239 26.8249 19.684 22.193 19.8405 19.8145C20.0283 16.9743 22 13.5082 25.0592 11.0671C28.0324 8.69635 29.1825 8 33.9944 8C39.0488 8 43.0157 10.2612 44.6822 14.7679C45.7698 17.7098 45.6133 21.395 43.3208 23.5466C41.0283 25.6983 36.4277 24.9784 35.7079 21.927C35.481 20.9803 35.6375 19.971 35.3871 19.0321C34.6125 16.1606 30.1606 15.7381 28.1732 17.9523C26.1859 20.1666 26.405 23.6718 27.7507 26.3242C28.2828 27.3726 28.9869 28.3585 29.9337 29.0548C30.8334 29.7199 31.9054 30.0954 32.9538 30.4788C37.8908 32.2549 43.2504 34.6804 45.2534 39.5314C46.8652 43.42 45.7541 48.1301 43.0078 51.3224C40.2537 54.5147 36.0913 56.2673 31.8975 56.6663C28.3219 57.0027 24.5663 56.3846 21.5618 54.4129C18.5573 52.4413 17.7827 47.9893 18.0488 45.423C18.2913 43.0757 20.6542 38.3343 23.4866 38.8742" stroke="#F5D565" stroke-width="2" stroke-miterlimit="10" stroke-linecap="round"/>
<mask id="path-4-outside-1_8_70" maskUnits="userSpaceOnUse" x="11.3126" y="2.46079" width="14.0188" height="17.623" fill="black">
<rect fill="white" x="11.3126" y="2.46079" width="14.0188" height="17.623"/>
<path d="M15.6415 16.8517C15.2875 17.5143 14.4108 17.9005 14.2243 17.1728V17.1728C14.1001 16.688 14.1435 15.9948 14.3508 15.1549C14.5581 14.3149 14.9229 13.354 15.4128 12.3572C15.9027 11.3604 16.5026 10.3586 17.1594 9.44049C17.8162 8.52235 18.5096 7.71624 19.1782 7.09354C19.8468 6.47085 20.4699 6.05081 20.9924 5.87061C21.5149 5.69042 21.9206 5.75564 22.1736 6.0605V6.0605C22.8436 6.86787 22.0444 8.02674 21.3118 8.77777L19.2049 10.9376C18.6126 11.5449 18.109 12.2329 17.7093 12.9812L15.6415 16.8517Z"/>
</mask>
<path d="M15.6415 16.8517C15.2875 17.5143 14.4108 17.9005 14.2243 17.1728V17.1728C14.1001 16.688 14.1435 15.9948 14.3508 15.1549C14.5581 14.3149 14.9229 13.354 15.4128 12.3572C15.9027 11.3604 16.5026 10.3586 17.1594 9.44049C17.8162 8.52235 18.5096 7.71624 19.1782 7.09354C19.8468 6.47085 20.4699 6.05081 20.9924 5.87061C21.5149 5.69042 21.9206 5.75564 22.1736 6.0605V6.0605C22.8436 6.86787 22.0444 8.02674 21.3118 8.77777L19.2049 10.9376C18.6126 11.5449 18.109 12.2329 17.7093 12.9812L15.6415 16.8517Z" fill="#70391A"/>
<path d="M15.6415 16.8517C15.2875 17.5143 14.4108 17.9005 14.2243 17.1728V17.1728C14.1001 16.688 14.1435 15.9948 14.3508 15.1549C14.5581 14.3149 14.9229 13.354 15.4128 12.3572C15.9027 11.3604 16.5026 10.3586 17.1594 9.44049C17.8162 8.52235 18.5096 7.71624 19.1782 7.09354C19.8468 6.47085 20.4699 6.05081 20.9924 5.87061C21.5149 5.69042 21.9206 5.75564 22.1736 6.0605V6.0605C22.8436 6.86787 22.0444 8.02674 21.3118 8.77777L19.2049 10.9376C18.6126 11.5449 18.109 12.2329 17.7093 12.9812L15.6415 16.8517Z" stroke="#F5D565" stroke-width="2" mask="url(#path-4-outside-1_8_70)"/>
<mask id="path-5-outside-2_8_70" maskUnits="userSpaceOnUse" x="40.4762" y="45.1946" width="13.9195" height="16.6205" fill="black">
<rect fill="white" x="40.4762" y="45.1946" width="13.9195" height="16.6205"/>
<path d="M49.8495 48.3154C50.2255 47.6682 51.1107 47.3021 51.3391 48.0149V48.0149C51.4844 48.4682 51.4732 49.1008 51.3064 49.8631C51.1395 50.6255 50.8215 51.4969 50.3773 52.4093C49.933 53.3218 49.3745 54.2506 48.7454 55.1231C48.1163 55.9956 47.4336 56.7882 46.7507 57.439C46.0678 58.0898 45.4032 58.5811 44.8087 58.8746C44.2143 59.1681 43.7062 59.2558 43.324 59.1309V59.1309C42.5567 58.88 42.9188 57.8029 43.4555 57.1999L46.3927 53.8999C46.799 53.4434 47.1584 52.9472 47.4655 52.4187L49.8495 48.3154Z"/>
</mask>
<path d="M49.8495 48.3154C50.2255 47.6682 51.1107 47.3021 51.3391 48.0149V48.0149C51.4844 48.4682 51.4732 49.1008 51.3064 49.8631C51.1395 50.6255 50.8215 51.4969 50.3773 52.4093C49.933 53.3218 49.3745 54.2506 48.7454 55.1231C48.1163 55.9956 47.4336 56.7882 46.7507 57.439C46.0678 58.0898 45.4032 58.5811 44.8087 58.8746C44.2143 59.1681 43.7062 59.2558 43.324 59.1309V59.1309C42.5567 58.88 42.9188 57.8029 43.4555 57.1999L46.3927 53.8999C46.799 53.4434 47.1584 52.9472 47.4655 52.4187L49.8495 48.3154Z" fill="#70391A"/>
<path d="M49.8495 48.3154C50.2255 47.6682 51.1107 47.3021 51.3391 48.0149V48.0149C51.4844 48.4682 51.4732 49.1008 51.3064 49.8631C51.1395 50.6255 50.8215 51.4969 50.3773 52.4093C49.933 53.3218 49.3745 54.2506 48.7454 55.1231C48.1163 55.9956 47.4336 56.7882 46.7507 57.439C46.0678 58.0898 45.4032 58.5811 44.8087 58.8746C44.2143 59.1681 43.7062 59.2558 43.324 59.1309V59.1309C42.5567 58.88 42.9188 57.8029 43.4555 57.1999L46.3927 53.8999C46.799 53.4434 47.1584 52.9472 47.4655 52.4187L49.8495 48.3154Z" stroke="#F5D565" stroke-width="2" mask="url(#path-5-outside-2_8_70)"/>
</svg>
